<svg xmlns="http://www.w3.org/2000/svg" xmlns:xlink="http://www.w3.org/1999/xlink" width="1920" height="3189" viewBox="0 0 1920 3189">
  <defs>
    <clipPath id="clip-Easy">
      <rect width="1920" height="3189"/>
    </clipPath>
  </defs>
  <g id="Easy" clip-path="url(#clip-Easy)">
    <rect width="1920" height="3189" fill="#fff"/>
    <rect id="Rectangle_1" data-name="Rectangle 1" width="1920" height="593" fill="#0093ff"/>
    <rect id="Rectangle_11" data-name="Rectangle 11" width="1920" height="593" transform="translate(0 2437)" fill="#65bcb5"/>
    <rect id="Rectangle_10" data-name="Rectangle 10" width="1920" height="161" transform="translate(0 3030)" fill="#0093ff"/>
    <rect id="Rectangle_4" data-name="Rectangle 4" width="1440" height="593" transform="translate(0 1186)" fill="#65bcb5"/>
    <rect id="Rectangle_2" data-name="Rectangle 2" width="960" height="593" transform="translate(0 593)" fill="#eaac21"/>
    <rect id="Rectangle_7" data-name="Rectangle 7" width="643" height="658" transform="translate(0 1779)" fill="#eaac21"/>
    <rect id="Rectangle_8" data-name="Rectangle 8" width="642" height="658" transform="translate(643 1779)" fill="#ffe200"/>
    <rect id="Rectangle_9" data-name="Rectangle 9" width="643" height="658" transform="translate(1277 1779)" fill="#eaac21"/>
    <rect id="Rectangle_3" data-name="Rectangle 3" width="960" height="593" transform="translate(960 593)" fill="#ffe200"/>
    <rect id="Rectangle_5" data-name="Rectangle 5" width="480" height="593" transform="translate(1440 1186)" fill="#0093ff"/>
    <text id="Header" transform="translate(816 317)" fill="#fff" font-size="80" font-family="Courier"><tspan x="0" y="0">Header</tspan></text>
    <text id="Footer" transform="translate(816 3131)" fill="#fff" font-size="80" font-family="Courier"><tspan x="0" y="0">Footer</tspan></text>
    <text id="Sidebar_1" data-name="Sidebar 1" transform="translate(322 950)" fill="#fff" font-size="80" font-family="Courier"><tspan x="0" y="0">Sidebar 1</tspan></text>
    <text id="Sidebar_1-2" data-name="Sidebar 1" transform="translate(97 2149)" fill="#fff" font-size="80" font-family="Courier"><tspan x="0" y="0">Sidebar 1</tspan></text>
    <text id="Sidebar_1-3" data-name="Sidebar 1" transform="translate(1399 2149)" fill="#fff" font-size="80" font-family="Courier"><tspan x="0" y="0">Sidebar 1</tspan></text>
    <text id="Sidebar_2" data-name="Sidebar 2" transform="translate(1248 950)" fill="#fff" font-size="80" font-family="Courier"><tspan x="0" y="0">Sidebar 2</tspan></text>
    <text id="Sidebar_2-2" data-name="Sidebar 2" transform="translate(754 2149)" fill="#fff" font-size="80" font-family="Courier"><tspan x="0" y="0">Sidebar 2</tspan></text>
    <text id="Main" transform="translate(529 1503)" fill="#fff" font-size="80" font-family="Courier"><tspan x="0" y="0">Main</tspan></text>
    <text id="Div" transform="translate(1599 1503)" fill="#fff" font-size="80" font-family="Courier"><tspan x="0" y="0">Div</tspan></text>
    <text id="Main-2" data-name="Main" transform="translate(912 2794)" fill="#fff" font-size="80" font-family="Courier"><tspan x="0" y="0">Main</tspan></text>
  </g>
</svg>
